<svg id="bg-svg" viewBox="0 0 1440 700" xmlns="http://www.w3.org/2000/svg" class="transition duration-300 ease-in-out delay-150"><defs><linearGradient id="gradient"><stop offset="5%" stop-color="#ff690088"></stop><stop offset="95%" stop-color="#fcb90088"></stop></linearGradient></defs><path d="M 0,700 C 0,700 0,233 0,233 C 90.57142857142858,239.60714285714286 181.14285714285717,246.21428571428572 298,266 C 414.85714285714283,285.7857142857143 558,318.75000000000006 693,296 C 828,273.24999999999994 954.8571428571429,194.78571428571428 1078,175 C 1201.142857142857,155.21428571428572 1320.5714285714284,194.10714285714286 1440,233 C 1440,233 1440,700 1440,700 Z" stroke="none" stroke-width="0" fill="url(#gradient)" class="transition-all duration-300 ease-in-out delay-150"></path><defs><linearGradient id="gradient"><stop offset="5%" stop-color="#ff6900ff"></stop><stop offset="95%" stop-color="#fcb900ff"></stop></linearGradient></defs><path d="M 0,700 C 0,700 0,466 0,466 C 97.10714285714286,452.25 194.21428571428572,438.5 314,453 C 433.7857142857143,467.5 576.2499999999999,510.24999999999994 694,506 C 811.7500000000001,501.75000000000006 904.7857142857142,450.5 1025,436 C 1145.2142857142858,421.5 1292.607142857143,443.75 1440,466 C 1440,466 1440,700 1440,700 Z" stroke="none" stroke-width="0" fill="url(#gradient)" class="transition-all duration-300 ease-in-out delay-150"></path></svg>