<svg height="100%" width="100%" id="bg-svg" viewBox="0 0 1440 600" xmlns="http://www.w3.org/2000/svg" class="transition duration-300 ease-in-out delay-150"><defs><linearGradient id="gradient"><stop offset="5%" stop-color="#abb8c388"></stop><stop offset="95%" stop-color="#474b4a88"></stop></linearGradient></defs><path d="M 0,600 C 0,600 0,200 0,200 C 184.66666666666663,214.66666666666666 369.33333333333326,229.33333333333331 504,215 C 638.6666666666667,200.66666666666669 723.3333333333334,157.33333333333334 871,150 C 1018.6666666666666,142.66666666666666 1229.3333333333333,171.33333333333331 1440,200 C 1440,200 1440,600 1440,600 Z" stroke="none" stroke-width="0" fill="url(#gradient)" class="transition-all duration-300 ease-in-out delay-150"></path><defs><linearGradient id="gradient"><stop offset="5%" stop-color="#abb8c3ff"></stop><stop offset="95%" stop-color="#474b4aff"></stop></linearGradient></defs><path d="M 0,600 C 0,600 0,400 0,400 C 137.06666666666666,415.20000000000005 274.1333333333333,430.40000000000003 441,441 C 607.8666666666667,451.59999999999997 804.5333333333333,457.6 976,450 C 1147.4666666666667,442.4 1293.7333333333333,421.2 1440,400 C 1440,400 1440,600 1440,600 Z" stroke="none" stroke-width="0" fill="url(#gradient)" class="transition-all duration-300 ease-in-out delay-150"></path></svg>